<svg xmlns="http://www.w3.org/2000/svg" xmlns:xlink="http://www.w3.org/1999/xlink" width="370" zoomAndPan="magnify" viewBox="0 0 277.5 127.500001" height="170" preserveAspectRatio="xMidYMid meet" version="1.2"><defs><clipPath id="bd15c0563b"><path d="M 203.550781 8.488281 L 221.390625 8.488281 L 221.390625 116.304688 L 203.550781 116.304688 Z M 203.550781 8.488281 "/></clipPath><clipPath id="40e9407eff"><path d="M 221.390625 14.460938 L 221.390625 110.320312 C 221.390625 111.902344 220.761719 113.421875 219.640625 114.542969 C 218.523438 115.664062 217 116.292969 215.417969 116.292969 L 209.523438 116.292969 C 207.941406 116.292969 206.421875 115.664062 205.300781 114.542969 C 204.179688 113.421875 203.550781 111.902344 203.550781 110.320312 L 203.550781 14.460938 C 203.550781 12.878906 204.179688 11.359375 205.300781 10.238281 C 206.421875 9.117188 207.941406 8.488281 209.523438 8.488281 L 215.417969 8.488281 C 217 8.488281 218.523438 9.117188 219.640625 10.238281 C 220.761719 11.359375 221.390625 12.878906 221.390625 14.460938 Z M 221.390625 14.460938 "/></clipPath><clipPath id="9cce334f32"><path d="M 191.832031 8.488281 L 209.671875 8.488281 L 209.671875 116.304688 L 191.832031 116.304688 Z M 191.832031 8.488281 "/></clipPath><clipPath id="754180f8ec"><path d="M 209.671875 14.460938 L 209.671875 110.320312 C 209.671875 111.902344 209.042969 113.421875 207.921875 114.542969 C 206.804688 115.664062 205.285156 116.292969 203.699219 116.292969 L 197.808594 116.292969 C 196.222656 116.292969 194.703125 115.664062 193.582031 114.542969 C 192.460938 113.421875 191.832031 111.902344 191.832031 110.320312 L 191.832031 14.460938 C 191.832031 12.878906 192.460938 11.359375 193.582031 10.238281 C 194.703125 9.117188 196.222656 8.488281 197.808594 8.488281 L 203.699219 8.488281 C 205.285156 8.488281 206.804688 9.117188 207.921875 10.238281 C 209.042969 11.359375 209.671875 12.878906 209.671875 14.460938 Z M 209.671875 14.460938 "/></clipPath><clipPath id="b56d2e278d"><path d="M 191.832031 92.3125 L 264 92.3125 L 264 116.683594 L 191.832031 116.683594 Z M 191.832031 92.3125 "/></clipPath><clipPath id="4d5add129e"><path d="M 197.808594 92.3125 L 258.035156 92.3125 C 259.621094 92.3125 261.140625 92.941406 262.261719 94.0625 C 263.382812 95.183594 264.011719 96.703125 264.011719 98.289062 L 264.011719 110.707031 C 264.011719 112.292969 263.382812 113.8125 262.261719 114.933594 C 261.140625 116.050781 259.621094 116.683594 258.035156 116.683594 L 197.808594 116.683594 C 196.222656 116.683594 194.703125 116.050781 193.582031 114.933594 C 192.464844 113.8125 191.832031 112.292969 191.832031 110.707031 L 191.832031 98.289062 C 191.832031 96.703125 192.464844 95.183594 193.582031 94.0625 C 194.703125 92.941406 196.222656 92.3125 197.808594 92.3125 Z M 197.808594 92.3125 "/></clipPath><clipPath id="95158ec611"><path d="M 202.773438 8.488281 L 212.472656 8.488281 L 212.472656 19.921875 L 202.773438 19.921875 Z M 202.773438 8.488281 "/></clipPath><clipPath id="fca79ddbaa"><path d="M 91.503906 8.488281 L 120.660156 8.488281 L 120.660156 116.347656 L 91.503906 116.347656 Z M 91.503906 8.488281 "/></clipPath><clipPath id="02786722dc"><path d="M 120.660156 14.464844 L 120.660156 110.296875 C 120.660156 113.597656 117.984375 116.273438 114.683594 116.273438 L 97.480469 116.273438 C 94.179688 116.273438 91.503906 113.597656 91.503906 110.296875 L 91.503906 14.464844 C 91.503906 11.164062 94.179688 8.488281 97.480469 8.488281 L 114.683594 8.488281 C 117.984375 8.488281 120.660156 11.164062 120.660156 14.464844 Z M 120.660156 14.464844 "/></clipPath><clipPath id="913c6c3ee1"><path d="M 107.246094 49.394531 L 173.082031 49.394531 L 173.082031 73.265625 L 107.246094 73.265625 Z M 107.246094 49.394531 "/></clipPath><clipPath id="b1be56a3bd"><path d="M 157.335938 8.488281 L 186.496094 8.488281 L 186.496094 116.347656 L 157.335938 116.347656 Z M 157.335938 8.488281 "/></clipPath><clipPath id="29aa7e4f33"><path d="M 186.496094 14.464844 L 186.496094 110.296875 C 186.496094 113.597656 183.820312 116.273438 180.519531 116.273438 L 163.3125 116.273438 C 160.011719 116.273438 157.335938 113.597656 157.335938 110.296875 L 157.335938 14.464844 C 157.335938 11.164062 160.011719 8.488281 163.3125 8.488281 L 180.519531 8.488281 C 183.820312 8.488281 186.496094 11.164062 186.496094 14.464844 Z M 186.496094 14.464844 "/></clipPath></defs><g id="5d961c2e66"><g clip-rule="nonzero" clip-path="url(#bd15c0563b)"><g clip-rule="nonzero" clip-path="url(#40e9407eff)"><path style=" stroke:none;fill-rule:nonzero;fill:#ffffff;fill-opacity:1;" d="M 203.550781 8.488281 L 221.390625 8.488281 L 221.390625 116.304688 L 203.550781 116.304688 Z M 203.550781 8.488281 "/></g></g><g clip-rule="nonzero" clip-path="url(#9cce334f32)"><g clip-rule="nonzero" clip-path="url(#754180f8ec)"><path style=" stroke:none;fill-rule:nonzero;fill:#ffffff;fill-opacity:1;" d="M 191.832031 8.488281 L 209.671875 8.488281 L 209.671875 116.304688 L 191.832031 116.304688 Z M 191.832031 8.488281 "/></g></g><g clip-rule="nonzero" clip-path="url(#b56d2e278d)"><g clip-rule="nonzero" clip-path="url(#4d5add129e)"><path style=" stroke:none;fill-rule:nonzero;fill:#ffffff;fill-opacity:1;" d="M 191.832031 116.683594 L 191.832031 92.3125 L 263.988281 92.3125 L 263.988281 116.683594 Z M 191.832031 116.683594 "/></g></g><g clip-rule="nonzero" clip-path="url(#95158ec611)"><path style=" stroke:none;fill-rule:nonzero;fill:#ffffff;fill-opacity:1;" d="M 202.773438 8.488281 L 212.472656 8.488281 L 212.472656 19.933594 L 202.773438 19.933594 Z M 202.773438 8.488281 "/></g><g clip-rule="nonzero" clip-path="url(#fca79ddbaa)"><g clip-rule="nonzero" clip-path="url(#02786722dc)"><path style=" stroke:none;fill-rule:nonzero;fill:#02a9ff;fill-opacity:1;" d="M 91.503906 8.488281 L 120.660156 8.488281 L 120.660156 116.234375 L 91.503906 116.234375 Z M 91.503906 8.488281 "/></g></g><g clip-rule="nonzero" clip-path="url(#913c6c3ee1)"><path style=" stroke:none;fill-rule:nonzero;fill:#02a9ff;fill-opacity:1;" d="M 107.246094 49.394531 L 173.082031 49.394531 L 173.082031 73.265625 L 107.246094 73.265625 Z M 107.246094 49.394531 "/></g><g clip-rule="nonzero" clip-path="url(#b1be56a3bd)"><g clip-rule="nonzero" clip-path="url(#29aa7e4f33)"><path style=" stroke:none;fill-rule:nonzero;fill:#02a9ff;fill-opacity:1;" d="M 157.335938 8.488281 L 186.496094 8.488281 L 186.496094 116.234375 L 157.335938 116.234375 Z M 157.335938 8.488281 "/></g></g><g style="fill:#ffffff;fill-opacity:1;"><g transform="translate(12.994441, 114.918087)"><path style="stroke:none" d="M 2.234375 0 L 40.265625 -107.421875 L 69.828125 -107.421875 L 107.875 0 L 79.34375 0 L 72.203125 -20.796875 L 38.328125 -20.796875 L 31.046875 0 Z M 44.421875 -45.46875 L 65.671875 -45.46875 L 55.125 -79.78125 Z M 44.421875 -45.46875 "/></g></g></g></svg>