<svg xmlns="http://www.w3.org/2000/svg" xmlns:xlink="http://www.w3.org/1999/xlink" width="370" zoomAndPan="magnify" viewBox="0 0 277.5 127.500001" height="170" preserveAspectRatio="xMidYMid meet" version="1.2"><defs><clipPath id="d04a459f7c"><path d="M 207.667969 5.003906 L 226.640625 5.003906 L 226.640625 119.648438 L 207.667969 119.648438 Z M 207.667969 5.003906 "/></clipPath><clipPath id="616f49cc0b"><path d="M 226.640625 7.246094 L 226.640625 117.398438 C 226.640625 118.636719 225.636719 119.636719 224.398438 119.636719 L 209.910156 119.636719 C 208.671875 119.636719 207.667969 118.636719 207.667969 117.398438 L 207.667969 7.246094 C 207.667969 6.007812 208.671875 5.003906 209.910156 5.003906 L 224.398438 5.003906 C 225.636719 5.003906 226.640625 6.007812 226.640625 7.246094 Z M 226.640625 7.246094 "/></clipPath><clipPath id="22831ad904"><path d="M 195.207031 5.003906 L 214.179688 5.003906 L 214.179688 119.648438 L 195.207031 119.648438 Z M 195.207031 5.003906 "/></clipPath><clipPath id="a54859cfac"><path d="M 214.179688 7.246094 L 214.179688 117.398438 C 214.179688 118.636719 213.175781 119.636719 211.9375 119.636719 L 197.449219 119.636719 C 196.210938 119.636719 195.207031 118.636719 195.207031 117.398438 L 195.207031 7.246094 C 195.207031 6.007812 196.210938 5.003906 197.449219 5.003906 L 211.9375 5.003906 C 213.175781 5.003906 214.179688 6.007812 214.179688 7.246094 Z M 214.179688 7.246094 "/></clipPath><clipPath id="da7df88603"><path d="M 195.203125 93.703125 L 272 93.703125 L 272 119.613281 L 195.203125 119.613281 Z M 195.203125 93.703125 "/></clipPath><clipPath id="0b66e3b464"><path d="M 197.441406 93.703125 L 269.707031 93.703125 C 270.941406 93.703125 271.945312 94.707031 271.945312 95.945312 L 271.945312 117.375 C 271.945312 118.613281 270.941406 119.613281 269.707031 119.613281 L 197.441406 119.613281 C 196.203125 119.613281 195.203125 118.613281 195.203125 117.375 L 195.203125 95.945312 C 195.203125 94.707031 196.203125 93.703125 197.441406 93.703125 Z M 197.441406 93.703125 "/></clipPath><clipPath id="f769a6f135"><path d="M 206.839844 5.003906 L 217.15625 5.003906 L 217.15625 17.164062 L 206.839844 17.164062 Z M 206.839844 5.003906 "/></clipPath><clipPath id="d8d1195282"><path d="M 88.527344 5.003906 L 119.53125 5.003906 L 119.53125 119.691406 L 88.527344 119.691406 Z M 88.527344 5.003906 "/></clipPath><clipPath id="09dac8d91b"><path d="M 119.53125 7.246094 L 119.53125 117.371094 C 119.53125 117.96875 119.292969 118.539062 118.875 118.957031 C 118.453125 119.378906 117.882812 119.613281 117.289062 119.613281 L 90.769531 119.613281 C 90.175781 119.613281 89.605469 119.378906 89.183594 118.957031 C 88.765625 118.539062 88.527344 117.96875 88.527344 117.371094 L 88.527344 7.246094 C 88.527344 6.652344 88.765625 6.082031 89.183594 5.660156 C 89.605469 5.242188 90.175781 5.003906 90.769531 5.003906 L 117.289062 5.003906 C 117.882812 5.003906 118.453125 5.242188 118.875 5.660156 C 119.292969 6.082031 119.53125 6.652344 119.53125 7.246094 Z M 119.53125 7.246094 "/></clipPath><clipPath id="b6792e1c77"><path d="M 105.269531 48.503906 L 175.269531 48.503906 L 175.269531 73.886719 L 105.269531 73.886719 Z M 105.269531 48.503906 "/></clipPath><clipPath id="f9e6443efd"><path d="M 158.53125 5.003906 L 189.53125 5.003906 L 189.53125 119.691406 L 158.53125 119.691406 Z M 158.53125 5.003906 "/></clipPath><clipPath id="7bd138dcf1"><path d="M 160.769531 5.003906 L 187.292969 5.003906 C 188.53125 5.003906 189.53125 6.007812 189.53125 7.246094 L 189.53125 117.398438 C 189.53125 118.636719 188.53125 119.636719 187.292969 119.636719 L 160.769531 119.636719 C 159.535156 119.636719 158.53125 118.636719 158.53125 117.398438 L 158.53125 7.246094 C 158.53125 6.007812 159.535156 5.003906 160.769531 5.003906 Z M 160.769531 5.003906 "/></clipPath></defs><g id="4de80986ad"><g clip-rule="nonzero" clip-path="url(#d04a459f7c)"><g clip-rule="nonzero" clip-path="url(#616f49cc0b)"><path style=" stroke:none;fill-rule:nonzero;fill:#ffffff;fill-opacity:1;" d="M 207.667969 5.003906 L 226.640625 5.003906 L 226.640625 119.648438 L 207.667969 119.648438 Z M 207.667969 5.003906 "/></g></g><g clip-rule="nonzero" clip-path="url(#22831ad904)"><g clip-rule="nonzero" clip-path="url(#a54859cfac)"><path style=" stroke:none;fill-rule:nonzero;fill:#ffffff;fill-opacity:1;" d="M 195.207031 5.003906 L 214.179688 5.003906 L 214.179688 119.648438 L 195.207031 119.648438 Z M 195.207031 5.003906 "/></g></g><g clip-rule="nonzero" clip-path="url(#da7df88603)"><g clip-rule="nonzero" clip-path="url(#0b66e3b464)"><path style=" stroke:none;fill-rule:nonzero;fill:#ffffff;fill-opacity:1;" d="M 195.203125 119.613281 L 195.203125 93.703125 L 271.917969 93.703125 L 271.917969 119.613281 Z M 195.203125 119.613281 "/></g></g><g clip-rule="nonzero" clip-path="url(#f769a6f135)"><path style=" stroke:none;fill-rule:nonzero;fill:#ffffff;fill-opacity:1;" d="M 206.839844 5.003906 L 217.15625 5.003906 L 217.15625 17.175781 L 206.839844 17.175781 Z M 206.839844 5.003906 "/></g><g clip-rule="nonzero" clip-path="url(#d8d1195282)"><g clip-rule="nonzero" clip-path="url(#09dac8d91b)"><path style=" stroke:none;fill-rule:nonzero;fill:#02a9ff;fill-opacity:1;" d="M 88.527344 5.003906 L 119.53125 5.003906 L 119.53125 119.570312 L 88.527344 119.570312 Z M 88.527344 5.003906 "/></g></g><g clip-rule="nonzero" clip-path="url(#b6792e1c77)"><path style=" stroke:none;fill-rule:nonzero;fill:#02a9ff;fill-opacity:1;" d="M 105.269531 48.503906 L 175.269531 48.503906 L 175.269531 73.886719 L 105.269531 73.886719 Z M 105.269531 48.503906 "/></g><g clip-rule="nonzero" clip-path="url(#f9e6443efd)"><g clip-rule="nonzero" clip-path="url(#7bd138dcf1)"><path style=" stroke:none;fill-rule:nonzero;fill:#02a9ff;fill-opacity:1;" d="M 158.53125 5.003906 L 189.53125 5.003906 L 189.53125 119.691406 L 158.53125 119.691406 Z M 158.53125 5.003906 "/></g></g><g style="fill:#ffffff;fill-opacity:1;"><g transform="translate(5.050006, 118.172737)"><path style="stroke:none" d="M 2.375 0 L 42.8125 -114.21875 L 74.25 -114.21875 L 114.703125 0 L 84.359375 0 L 76.78125 -22.125 L 40.765625 -22.125 L 33.015625 0 Z M 47.234375 -48.34375 L 69.828125 -48.34375 L 58.609375 -84.84375 Z M 47.234375 -48.34375 "/></g></g></g></svg>