<svg xmlns="http://www.w3.org/2000/svg" xmlns:xlink="http://www.w3.org/1999/xlink" width="370" zoomAndPan="magnify" viewBox="0 0 277.5 127.500001" height="170" preserveAspectRatio="xMidYMid meet" version="1.2"><defs><clipPath id="0d0c253e6a"><path d="M 203.195312 8.488281 L 221.039062 8.488281 L 221.039062 116.304688 L 203.195312 116.304688 Z M 203.195312 8.488281 "/></clipPath><clipPath id="85fc2dd011"><path d="M 221.039062 15.957031 L 221.039062 108.828125 C 221.039062 112.953125 217.695312 116.296875 213.570312 116.296875 L 210.664062 116.296875 C 206.539062 116.296875 203.195312 112.953125 203.195312 108.828125 L 203.195312 15.957031 C 203.195312 11.832031 206.539062 8.488281 210.664062 8.488281 L 213.570312 8.488281 C 217.695312 8.488281 221.039062 11.832031 221.039062 15.957031 Z M 221.039062 15.957031 "/></clipPath><clipPath id="fac8bf058a"><path d="M 191.832031 8.488281 L 209.671875 8.488281 L 209.671875 116.304688 L 191.832031 116.304688 Z M 191.832031 8.488281 "/></clipPath><clipPath id="913f02f90c"><path d="M 209.671875 15.957031 L 209.671875 108.828125 C 209.671875 112.953125 206.328125 116.296875 202.203125 116.296875 L 199.300781 116.296875 C 195.175781 116.296875 191.832031 112.953125 191.832031 108.828125 L 191.832031 15.957031 C 191.832031 11.832031 195.175781 8.488281 199.300781 8.488281 L 202.203125 8.488281 C 206.328125 8.488281 209.671875 11.832031 209.671875 15.957031 Z M 209.671875 15.957031 "/></clipPath><clipPath id="4dafbf2056"><path d="M 191.828125 92.042969 L 264.019531 92.042969 L 264.019531 116.683594 L 191.828125 116.683594 Z M 191.828125 92.042969 "/></clipPath><clipPath id="f045faec3d"><path d="M 199.296875 92.042969 L 256.539062 92.042969 C 260.664062 92.042969 264.007812 95.386719 264.007812 99.511719 L 264.007812 109.214844 C 264.007812 113.339844 260.664062 116.683594 256.539062 116.683594 L 199.296875 116.683594 C 195.171875 116.683594 191.828125 113.339844 191.828125 109.214844 L 191.828125 99.511719 C 191.828125 95.386719 195.171875 92.042969 199.296875 92.042969 Z M 199.296875 92.042969 "/></clipPath><clipPath id="f25f147507"><path d="M 202.769531 8.488281 L 212.472656 8.488281 L 212.472656 19.921875 L 202.769531 19.921875 Z M 202.769531 8.488281 "/></clipPath><clipPath id="8d678e83f8"><path d="M 91.503906 8.21875 L 120.660156 8.21875 L 120.660156 116 L 91.503906 116 Z M 91.503906 8.21875 "/></clipPath><clipPath id="de2cb98c19"><path d="M 120.660156 15.6875 L 120.660156 108.53125 C 120.660156 112.660156 117.316406 116.003906 113.1875 116.003906 L 98.972656 116.003906 C 94.847656 116.003906 91.503906 112.660156 91.503906 108.53125 L 91.503906 15.6875 C 91.503906 11.5625 94.847656 8.21875 98.972656 8.21875 L 113.1875 8.21875 C 117.316406 8.21875 120.660156 11.5625 120.660156 15.6875 Z M 120.660156 15.6875 "/></clipPath><clipPath id="63d8e11658"><path d="M 107.246094 49.125 L 173.082031 49.125 L 173.082031 72.996094 L 107.246094 72.996094 Z M 107.246094 49.125 "/></clipPath><clipPath id="5debef7c19"><path d="M 157.335938 8.21875 L 186.496094 8.21875 L 186.496094 116 L 157.335938 116 Z M 157.335938 8.21875 "/></clipPath><clipPath id="745b633313"><path d="M 186.496094 15.6875 L 186.496094 108.53125 C 186.496094 112.660156 183.148438 116.003906 179.023438 116.003906 L 164.808594 116.003906 C 160.683594 116.003906 157.335938 112.660156 157.335938 108.53125 L 157.335938 15.6875 C 157.335938 11.5625 160.683594 8.21875 164.808594 8.21875 L 179.023438 8.21875 C 183.148438 8.21875 186.496094 11.5625 186.496094 15.6875 Z M 186.496094 15.6875 "/></clipPath><clipPath id="7779d28bfc"><path d="M 111.707031 77.921875 L 120.640625 77.921875 L 120.640625 116.023438 L 111.707031 116.023438 Z M 111.707031 77.921875 "/></clipPath></defs><g id="653769721e"><g clip-rule="nonzero" clip-path="url(#0d0c253e6a)"><g clip-rule="nonzero" clip-path="url(#85fc2dd011)"><path style=" stroke:none;fill-rule:nonzero;fill:#ffffff;fill-opacity:1;" d="M 203.195312 8.488281 L 221.039062 8.488281 L 221.039062 116.304688 L 203.195312 116.304688 Z M 203.195312 8.488281 "/></g></g><g clip-rule="nonzero" clip-path="url(#fac8bf058a)"><g clip-rule="nonzero" clip-path="url(#913f02f90c)"><path style=" stroke:none;fill-rule:nonzero;fill:#ffffff;fill-opacity:1;" d="M 191.832031 8.488281 L 209.671875 8.488281 L 209.671875 116.304688 L 191.832031 116.304688 Z M 191.832031 8.488281 "/></g></g><g clip-rule="nonzero" clip-path="url(#4dafbf2056)"><g clip-rule="nonzero" clip-path="url(#f045faec3d)"><path style=" stroke:none;fill-rule:nonzero;fill:#ffffff;fill-opacity:1;" d="M 191.828125 116.683594 L 191.828125 92.042969 L 264.019531 92.042969 L 264.019531 116.683594 Z M 191.828125 116.683594 "/></g></g><g clip-rule="nonzero" clip-path="url(#f25f147507)"><path style=" stroke:none;fill-rule:nonzero;fill:#ffffff;fill-opacity:1;" d="M 202.769531 8.488281 L 212.472656 8.488281 L 212.472656 19.933594 L 202.769531 19.933594 Z M 202.769531 8.488281 "/></g><g clip-rule="nonzero" clip-path="url(#8d678e83f8)"><g clip-rule="nonzero" clip-path="url(#de2cb98c19)"><path style=" stroke:none;fill-rule:nonzero;fill:#02a9ff;fill-opacity:1;" d="M 91.503906 8.21875 L 120.660156 8.21875 L 120.660156 115.960938 L 91.503906 115.960938 Z M 91.503906 8.21875 "/></g></g><g clip-rule="nonzero" clip-path="url(#63d8e11658)"><path style=" stroke:none;fill-rule:nonzero;fill:#02a9ff;fill-opacity:1;" d="M 107.246094 49.125 L 173.082031 49.125 L 173.082031 72.996094 L 107.246094 72.996094 Z M 107.246094 49.125 "/></g><g clip-rule="nonzero" clip-path="url(#5debef7c19)"><g clip-rule="nonzero" clip-path="url(#745b633313)"><path style=" stroke:none;fill-rule:nonzero;fill:#02a9ff;fill-opacity:1;" d="M 157.335938 8.21875 L 186.496094 8.21875 L 186.496094 115.960938 L 157.335938 115.960938 Z M 157.335938 8.21875 "/></g></g><g clip-rule="nonzero" clip-path="url(#7779d28bfc)"><path style=" stroke:none;fill-rule:nonzero;fill:#02a9ff;fill-opacity:1;" d="M 111.707031 77.921875 L 120.640625 77.921875 L 120.640625 116.023438 L 111.707031 116.023438 Z M 111.707031 77.921875 "/></g><g style="fill:#ffffff;fill-opacity:1;"><g transform="translate(12.993801, 114.918087)"><path style="stroke:none" d="M 2.234375 0 L 40.265625 -107.421875 L 69.828125 -107.421875 L 107.875 0 L 79.34375 0 L 72.203125 -20.796875 L 38.328125 -20.796875 L 31.046875 0 Z M 44.421875 -45.46875 L 65.671875 -45.46875 L 55.125 -79.78125 Z M 44.421875 -45.46875 "/></g></g></g></svg>